<?xml version="1.0" encoding="UTF-8" standalone="no"?>
<svg
   id="Rebel Engine"
   viewBox="0 0 640 480"
   version="1.1"
   xmlns="http://www.w3.org/2000/svg"
   xmlns:svg="http://www.w3.org/2000/svg">
  <style>
    .logo-colour {
      fill:#0d31e2;
      stroke:none
    }
    .logo-highlight {
      fill:#000000;
      stroke:none
    }
    .logo-solid {
      fill:#ffffff;
      stroke:none;
    }
    .hand-writing {
      stroke:#000000;
      stroke-width:10;
    }
  </style>
  <g
     id="Rebel"
     transform="translate(17,17)">
    <g
       id="Rebel Logo">
      <path
        id="Head"
        class="logo-colour"
        d="
          m 90,45
          h 150
          c 0,0
            10,120
            -75,120
          h -75
          z" />
      <path
        id="Body"
        class="logo-colour"
        d="
          m 90,45
          h 70
          l -61,211
          h -70
          z" />
      <path
        id="FrontLeg"
        class="logo-colour"
        d="
          m 90,45
          h 45
          l 75,211
          h -55
          l -65,-91
          z" />
      <path
        id="Ear"
        class="logo-highlight"
        d="
          m 90,45
          c 10,-45
            60,-45
            60,-45
            0,0
            -15,22.75
            -15,45
          z" />
      <path
        id="Tail"
        class="logo-highlight"
        d="
          m 29,256
          c -40.4524453625114,-22.1042906285867
            -26.5661247822458,-70.1373011603251
            -26.5661247822458,-70.1373011603251
            0,0
            17.4489585652026,20.658747420641
            39.0638133044849,26.9075916817606
          z" />
      <circle
        id="Nose"
        class="logo-highlight"
        cx="238"
        cy="50"
        r="18" />
      <circle
        id="Eye"
        class="logo-solid"
        cx="160"
        cy="100"
        r="18" />
    </g>
    <g
       id="ebel"
       transform="skewX(-19)"
       class="hand-writing">
      <path
         id="e"
         d="m 361.48,183.16 q 0,-1.28 -7.04,-6.56 -5.12,-3.84 -7.36,-4.8 -2.08,-0.96 -6.08,-0.96 -8,0 -11.84,1.28 -3.68,1.12 -7.84,5.12 -12.32,12 -12.48,15.52 0.64,0.16 2.72,0.16 15.52,0 43.04,-5.44 6.88,-1.28 6.88,-4.32 z m 20.64,25.28 q 2.88,0 2.88,3.36 0,3.68 -4.64,10.56 -4.64,6.72 -9.28,10.88 -17.92,15.36 -36.96,15.36 -15.68,0 -28.32,-12.32 -12.64,-12.32 -12.64,-33.92 0,-6.08 1.76,-11.68 3.36,-9.92 15.04,-20.64 11.68,-10.88 22.4,-10.88 2.88,0 8.48,0.48 8.64,0.64 12.16,1.76 3.68,0.96 8.32,4 5.12,3.36 9.28,9.6 4.16,6.08 4.16,10.72 0,6.08 -4.96,8.96 -4.96,2.88 -16.8,5.28 -15.52,3.04 -32,4 l -13.92,0.64 v 4.16 q 0,5.92 2.56,10.4 2.72,4.48 8.64,9.44 8.48,7.04 17.28,7.04 7.04,0 14.88,-4.16 7.84,-4.32 13.28,-9.44 5.6,-5.12 10.72,-9.28 5.28,-4.32 7.68,-4.32 z" />
      <path
         id="b"
         d="m 467.4801,160.28 q 2.88,0 6.4,1.44 3.52,1.44 7.2,4.48 3.68,2.88 6.08,8.8 2.4,5.76 2.4,13.28 0,11.36 -5.28,23.2 -5.28,11.84 -14.88,20.64 -7.04,6.24 -19.36,12.48 -12.16,6.08 -18.72,6.08 -7.84,-0.16 -14.72,-4.32 -6.88,-4.32 -7.52,-7.52 -0.48,-2.08 -1.76,-31.52 -1.28,-29.44 -3.36,-42.08 -4.32,-26.56 -4.32,-42.4 0,-8.96 5.92,-12 1.12,-0.64 2.24,-0.64 3.68,0 4.8,5.44 1.28,5.28 2.24,20 0.96,14.72 2.72,25.6 2.56,16.32 3.04,22.08 l 0.32,4.48 10.08,-9.28 q 7.84,-7.2 12.96,-10.56 5.12,-3.52 10.56,-5.12 9.28,-2.56 12.96,-2.56 z m 8.64,29.12 q 0,-14.72 -9.12,-14.72 -3.52,0 -8,0.8 -2.72,0.48 -10.72,6.4 -8,5.92 -15.36,14.08 -4,4.32 -6.56,12 -2.4,7.68 -2.4,15.2 0,5.6 1.44,9.12 1.6,3.52 3.04,4.48 1.6,0.96 2.88,0.96 2.88,0 7.84,-1.44 4.96,-1.44 13.76,-7.2 8.8,-5.92 15.68,-15.2 7.52,-10.08 7.52,-24.48 z" />
      <path
         id="e"
         d="m 569.64022,183.16 q 0,-1.28 -7.04,-6.56 -5.12,-3.84 -7.36,-4.8 -2.08,-0.96 -6.08,-0.96 -8,0 -11.84,1.28 -3.68,1.12 -7.84,5.12 -12.32,12 -12.48,15.52 0.64,0.16 2.72,0.16 15.52,0 43.04,-5.44 6.88,-1.28 6.88,-4.32 z m 20.64,25.28 q 2.88,0 2.88,3.36 0,3.68 -4.64,10.56 -4.64,6.72 -9.28,10.88 -17.92,15.36 -36.96,15.36 -15.68,0 -28.32,-12.32 -12.64,-12.32 -12.64,-33.92 0,-6.08 1.76,-11.68 3.36,-9.92 15.04,-20.64 11.68,-10.88 22.4,-10.88 2.88,0 8.48,0.48 8.64,0.64 12.16,1.76 3.68,0.96 8.32,4 5.12,3.36 9.28,9.6 4.16,6.08 4.16,10.72 0,6.08 -4.96,8.96 -4.96,2.88 -16.8,5.28 -15.52,3.04 -32,4 l -13.92,0.64 v 4.16 q 0,5.92 2.56,10.4 2.72,4.48 8.64,9.44 8.48,7.04 17.28,7.04 7.04,0 14.88,-4.16 7.84,-4.32 13.28,-9.44 5.6,-5.12 10.72,-9.28 5.28,-4.32 7.68,-4.32 z" />
      <path
         id="l"
         d="m 609.72032,117.88 q 0,-11.68 0.96,-17.92 0.96,-6.24 2.24,-7.84 1.44,-1.76 3.84,-1.76 3.84,0 4.64,3.2 0.8,3.36 3.36,40.8 2.72,37.44 4.96,72.8 2.4,35.36 2.4,36.16 0,5.6 -6.08,5.6 -5.44,0 -7.04,-6.56 -1.44,-6.72 -3.68,-39.04 -2.56,-34.08 -4.64,-59.36 -0.96,-13.44 -0.96,-26.08 z" />
    </g>
  </g>
  <g id="Engine">
    <path
       id="E"
       d="m 132.16,407 H 66.4 V 292.76 h 65.76 v 19.84 h -41.6 v 25.12 h 38.72 v 19.84 H 90.56 V 387 h 41.6 z" />
    <path
       id="n"
       d="m 193.67991,318.04 q 14.08,0 22.56,7.68 8.48,7.52 8.48,24.32 V 407 h -23.84 v -51.04 q 0,-9.44 -3.36,-14.08 -3.36,-4.8 -10.72,-4.8 -10.88,0 -14.88,7.52 -4,7.36 -4,21.28 V 407 h -23.84 v -87.36 h 18.24 l 3.2,11.2 h 1.28 q 4.16,-6.72 11.36,-9.76 7.36,-3.04 15.52,-3.04 z" />
    <path
       id="g"
       d="m 267.51985,318.04 q 16.16,0 25.28,12.8 h 0.64 l 1.92,-11.2 h 20.16 v 87.52 q 0,18.72 -11.04,28.48 -11.04,9.76 -32.64,9.76 -9.28,0 -17.28,-1.12 -7.84,-1.12 -15.36,-4 v -19.04 q 16.16,6.72 34.08,6.72 18.4,0 18.4,-19.84 v -1.76 q 0,-2.72 0.16,-5.6 0.32,-2.88 0.48,-5.12 h -0.64 q -4.48,6.88 -10.72,9.92 -6.24,3.04 -14.08,3.04 -15.52,0 -24.32,-11.84 -8.64,-12 -8.64,-33.28 0,-21.44 8.96,-33.44 8.96,-12 24.64,-12 z m 7.52,19.36 q -16.8,0 -16.8,26.4 0,26.08 17.12,26.08 9.12,0 13.44,-5.12 4.48,-5.28 4.48,-18.24 v -2.88 q 0,-14.08 -4.32,-20.16 -4.32,-6.08 -13.92,-6.08 z" />
    <path
       id="i"
       d="m 342.47976,285.4 q 5.28,0 9.12,2.56 3.84,2.4 3.84,9.12 0,6.56 -3.84,9.12 -3.84,2.56 -9.12,2.56 -5.44,0 -9.28,-2.56 -3.68,-2.56 -3.68,-9.12 0,-6.72 3.68,-9.12 3.84,-2.56 9.28,-2.56 z m 11.84,34.24 V 407 h -23.84 v -87.36 z" />
    <path
       id="n"
       d="m 418.8798,318.04 q 14.08,0 22.56,7.68 8.48,7.52 8.48,24.32 V 407 h -23.84 v -51.04 q 0,-9.44 -3.36,-14.08 -3.36,-4.8 -10.72,-4.8 -10.88,0 -14.88,7.52 -4,7.36 -4,21.28 V 407 h -23.84 v -87.36 h 18.24 l 3.2,11.2 h 1.28 q 4.16,-6.72 11.36,-9.76 7.36,-3.04 15.52,-3.04 z" />
    <path
       id="e"
       d="m 500.39974,318.04 q 18.08,0 28.64,10.4 10.56,10.24 10.56,29.28 v 11.52 h -56.32 q 0.32,10.08 5.92,15.84 5.76,5.76 15.84,5.76 8.48,0 15.36,-1.6 6.88,-1.76 14.24,-5.28 v 18.4 q -6.4,3.2 -13.6,4.64 -7.04,1.6 -17.12,1.6 -13.12,0 -23.2,-4.8 -10.08,-4.96 -15.84,-14.88 -5.76,-9.92 -5.76,-24.96 0,-15.36 5.12,-25.44 5.28,-10.24 14.56,-15.36 9.28,-5.12 21.6,-5.12 z m 0.16,16.96 q -6.88,0 -11.52,4.48 -4.48,4.48 -5.28,13.92 h 33.44 q -0.16,-8 -4.16,-13.12 -4,-5.28 -12.48,-5.28 z" />
  </g>
</svg>
